<?xml version="1.0" encoding="UTF-8" standalone="no"?>
<!-- Created with Inkscape (http://www.inkscape.org/) -->

<svg
   xmlns:dc="http://purl.org/dc/elements/1.1/"
   xmlns:cc="http://creativecommons.org/ns#"
   xmlns:rdf="http://www.w3.org/1999/02/22-rdf-syntax-ns#"
   xmlns:svg="http://www.w3.org/2000/svg"
   xmlns="http://www.w3.org/2000/svg"
   xmlns:sodipodi="http://sodipodi.sourceforge.net/DTD/sodipodi-0.dtd"
   xmlns:inkscape="http://www.inkscape.org/namespaces/inkscape"
   width="1280"
   height="200"
   viewBox="0 0 1280 200"
   id="svg2"
   version="1.1"
   inkscape:version="0.91 r13725"
   inkscape:export-filename="\\LUCA\Hackathon\assets\hax-logo2-big.png"
   inkscape:export-xdpi="90"
   inkscape:export-ydpi="90"
   sodipodi:docname="hax-logo.svg">
  <defs
     id="defs4" />
  <sodipodi:namedview
     id="base"
     pagecolor="#ffffff"
     bordercolor="#666666"
     borderopacity="1.0"
     inkscape:pageopacity="0.0"
     inkscape:pageshadow="2"
     inkscape:zoom="0.98994949"
     inkscape:cx="690.53207"
     inkscape:cy="151.48949"
     inkscape:document-units="px"
     inkscape:current-layer="layer1"
     showgrid="false"
     inkscape:object-nodes="true"
     units="px"
     inkscape:window-width="1920"
     inkscape:window-height="1017"
     inkscape:window-x="-8"
     inkscape:window-y="-8"
     inkscape:window-maximized="1" />
  <metadata
     id="metadata7">
    <rdf:RDF>
      <cc:Work
         rdf:about="">
        <dc:format>image/svg+xml</dc:format>
        <dc:type
           rdf:resource="http://purl.org/dc/dcmitype/StillImage" />
        <dc:title></dc:title>
      </cc:Work>
    </rdf:RDF>
  </metadata>
  <g
     inkscape:label="Layer 1"
     inkscape:groupmode="layer"
     id="layer1"
     transform="translate(0,-852.36216)">
    <path
       style="opacity:1;fill:#1390ff;fill-opacity:1;stroke:none;stroke-width:25;stroke-miterlimit:4;stroke-dasharray:none;stroke-dashoffset:0;stroke-opacity:1"
       d="m -331.25527,71.159972 0,99.999998 5,0 0,-47.5 50,0 0,47.5 5,0 0,-99.999998 -5,0 0,47.499998 -50,0 0,-47.499998 -5,0 z"
       id="rect4178"
       inkscape:connector-curvature="0" />
    <path
       style="opacity:1;fill:#1390ff;fill-opacity:1;stroke:none;stroke-width:25;stroke-miterlimit:4;stroke-dasharray:none;stroke-dashoffset:0;stroke-opacity:1"
       d="m -237.05407,77.191222 -34.2012,93.968748 4.6992,1.70899 34.2012,-93.968748 4.6973,-1.70899 z m 4.6992,1.70899 34.2012,93.968748 4.6992,-1.70899 -34.2031,-93.968748 z"
       id="rect4184"
       inkscape:connector-curvature="0"
       sodipodi:nodetypes="ccccccccccc" />
    <path
       style="opacity:1;fill:#1390ff;fill-opacity:1;stroke:none;stroke-width:25;stroke-miterlimit:4;stroke-dasharray:none;stroke-dashoffset:0;stroke-opacity:1"
       d="m -188.75527,77.191222 -4.6992,1.70899 16.7891,46.130858 -16.7891,46.1289 4.6992,1.70899 14.75,-40.5293 14.752,40.5293 4.6992,-1.70899 -16.7891,-46.1289 16.7891,-46.130858 -4.6992,-1.70899 -14.752,40.529298 -14.75,-40.529298 z"
       id="rect4188"
       inkscape:connector-curvature="0" />
    <g
       id="g4810"
       transform="matrix(4.2550008,0,0,4.2550008,90.197277,-3220.5135)"
       style="fill:#ffffff;fill-opacity:1">
      <path
         d="m 10.208158,982.71358 5.036092,0 0,12.08662 4.512338,0 0,-28.20211 -4.512338,0 0,12.08662 -5.036092,0 0,-12.08662 -4.4317613,0 0,28.20211 4.4317613,0 0,-12.08662 z"
         style="font-style:normal;font-variant:normal;font-weight:bold;font-stretch:normal;font-size:medium;line-height:125%;font-family:'Bebas Neue';-inkscape-font-specification:'Bebas Neue Bold';letter-spacing:0px;word-spacing:0px;fill:#ffffff;fill-opacity:1;stroke:none;stroke-width:1px;stroke-linecap:butt;stroke-linejoin:miter;stroke-opacity:1"
         id="path4218"
         inkscape:connector-curvature="0" />
      <path
         d="m 32.839751,966.59809 -6.486487,0 -4.512338,28.20211 4.069162,0 0.765486,-5.11667 5.438979,0 0.765486,5.11667 4.47205,0 -4.512338,-28.20211 z m -3.464832,4.9958 2.135303,14.26221 -4.270606,0 2.135303,-14.26221 z"
         style="font-style:normal;font-variant:normal;font-weight:bold;font-stretch:normal;font-size:medium;line-height:125%;font-family:'Bebas Neue';-inkscape-font-specification:'Bebas Neue Bold';letter-spacing:0px;word-spacing:0px;fill:#ffffff;fill-opacity:1;stroke:none;stroke-width:1px;stroke-linecap:butt;stroke-linejoin:miter;stroke-opacity:1"
         id="path4220"
         inkscape:connector-curvature="0" />
      <path
         d="m 50.053113,966.59809 -3.424543,10.39449 -3.343965,-10.39449 -4.592916,0 4.633205,13.69817 -4.955514,14.50394 4.149739,0 3.666275,-11.15998 3.625987,11.15998 4.673493,0 -4.955515,-14.50394 4.633205,-13.69817 -4.109451,0 z"
         style="font-style:normal;font-variant:normal;font-weight:bold;font-stretch:normal;font-size:medium;line-height:125%;font-family:'Bebas Neue';-inkscape-font-specification:'Bebas Neue Bold';letter-spacing:0px;word-spacing:0px;fill:#ffffff;fill-opacity:1;stroke:none;stroke-width:1px;stroke-linecap:butt;stroke-linejoin:miter;stroke-opacity:1"
         id="path4222"
         inkscape:connector-curvature="0" />
      <path
         d="m 109.67097,994.8002 4.55263,0 0,-28.20211 -3.9483,0 0,16.88098 -4.55262,-16.88098 -5.55985,0 0,28.20211 3.98859,0 0,-20.42639 5.51955,20.42639 z"
         style="font-style:normal;font-variant:normal;font-weight:bold;font-stretch:normal;font-size:medium;line-height:125%;font-family:'Bebas Neue';-inkscape-font-specification:'Bebas Neue Bold';letter-spacing:0px;word-spacing:0px;fill:#ffffff;fill-opacity:1;stroke:none;stroke-width:1px;stroke-linecap:butt;stroke-linejoin:miter;stroke-opacity:1"
         id="path4224"
         inkscape:connector-curvature="0" />
      <path
         inkscape:connector-curvature="0"
         id="path4213"
         d="m 90.476757,990.01743 c -0.09976,0.0831 -0.377819,0.2912 -0.617906,0.46249 -2.362837,1.68583 -5.194637,2.46636 -8.053801,2.21989 -2.212591,-0.19074 -4.473134,-1.0374 -6.127046,-2.29481 -0.230979,-0.1756 -0.434528,-0.30472 -0.45233,-0.28691 -0.0178,0.0178 -0.44375,-0.37902 -0.946552,-0.88182 -0.502801,-0.5028 -0.899619,-0.92875 -0.881817,-0.94655 0.0178,-0.0178 -0.11131,-0.22135 -0.286916,-0.45233 -1.813473,-2.38532 -2.660457,-5.75267 -2.21877,-8.82115 0.286354,-1.98935 0.949598,-3.65239 2.139332,-5.36422 0.420335,-0.60479 1.591895,-1.84424 2.200913,-2.32845 1.730766,-1.37608 3.713751,-2.23789 5.860183,-2.54686 2.491301,-0.3586 5.047355,0.0732 7.272154,1.22848 0.802232,0.41658 0.942122,0.50468 1.704146,1.07329 l 0.713912,0.5327 1.472841,-1.42967 c 0.810062,-0.78631 1.455581,-1.40378 1.434486,-1.37215 -0.0211,0.0316 0.02277,0.49191 0.09748,1.02285 0.125446,0.8915 0.336836,2.47229 0.521993,3.90349 0.04189,0.32379 0.123123,0.93442 0.18052,1.35697 0.09645,0.71001 0.153801,1.1401 0.413347,3.09958 0.05202,0.39275 0.08146,0.72721 0.06542,0.74326 -0.01604,0.016 -0.183054,0.005 -0.371137,-0.0236 -0.188082,-0.029 -0.689833,-0.0976 -1.115002,-0.15239 -0.425169,-0.0548 -1.39997,-0.18323 -2.166223,-0.28545 -0.766254,-0.10222 -1.823047,-0.24218 -2.34843,-0.31102 -1.11245,-0.14575 -3.351292,-0.4442 -3.818863,-0.50907 l -0.322855,-0.0448 1.442307,-1.44231 1.442307,-1.44231 -0.225638,-0.16912 c -1.326703,-0.99441 -2.866481,-1.51588 -4.552368,-1.54171 -1.265967,-0.0194 -2.375013,0.22517 -3.500768,0.77202 -1.124385,0.54617 -2.18576,1.44697 -2.872976,2.4383 -1.243282,1.79349 -1.690715,3.89953 -1.269872,5.97723 0.320004,1.57986 0.95749,2.76473 2.107732,3.91757 1.136846,1.13942 2.344878,1.78925 3.917802,2.10751 1.689972,0.34193 3.526413,0.0857 5.0565,-0.70559 0.653517,-0.33796 0.99348,-0.57668 1.702147,-1.19524 0.684723,-0.59766 1.044301,-0.77382 1.63365,-0.80032 1.180188,-0.0531 2.177505,0.81892 2.26226,1.97796 0.02956,0.40417 -0.06509,0.87472 -0.239939,1.19289 -0.146596,0.26677 -0.748515,0.90193 -1.252222,1.32139 z"
         style="fill:#ffffff;fill-opacity:1" />
    </g>
    <g
       id="g4817"
       transform="matrix(4.2550023,0,0,4.2550023,654.62392,-3434.8007)"
       style="fill:#ffffff;fill-opacity:1">
      <path
         d="m 4.4317544,1033.0745 5.036092,0 0,12.0866 4.5123386,0 0,-28.2021 -4.5123386,0 0,12.0866 -5.036092,0 0,-12.0866 -4.4317609600002,0 0,28.2021 4.4317609600002,0 0,-12.0866 z"
         style="font-style:normal;font-variant:normal;font-weight:bold;font-stretch:normal;font-size:medium;line-height:125%;font-family:'Bebas Neue';-inkscape-font-specification:'Bebas Neue Bold';letter-spacing:0px;word-spacing:0px;fill:#ffffff;fill-opacity:1;stroke:none;stroke-width:1px;stroke-linecap:butt;stroke-linejoin:miter;stroke-opacity:1"
         id="path4226"
         inkscape:connector-curvature="0" />
      <path
         d="m 27.063348,1016.959 -6.486487,0 -4.512338,28.2021 4.069162,0 0.765486,-5.1166 5.438979,0 0.765486,5.1166 4.47205,0 -4.512338,-28.2021 z m -3.464832,4.9958 2.135303,14.2622 -4.270606,0 2.135303,-14.2622 z"
         style="font-style:normal;font-variant:normal;font-weight:bold;font-stretch:normal;font-size:medium;line-height:125%;font-family:'Bebas Neue';-inkscape-font-specification:'Bebas Neue Bold';letter-spacing:0px;word-spacing:0px;fill:#ffffff;fill-opacity:1;stroke:none;stroke-width:1px;stroke-linecap:butt;stroke-linejoin:miter;stroke-opacity:1"
         id="path4228"
         inkscape:connector-curvature="0" />
      <path
         d="m 44.27671,1016.959 -3.424543,10.3945 -3.343965,-10.3945 -4.592916,0 4.633205,13.6982 -4.955514,14.5039 4.149739,0 3.666275,-11.16 3.625987,11.16 4.673493,0 -4.955515,-14.5039 4.633205,-13.6982 -4.109451,0 z"
         style="font-style:normal;font-variant:normal;font-weight:bold;font-stretch:normal;font-size:medium;line-height:125%;font-family:'Bebas Neue';-inkscape-font-specification:'Bebas Neue Bold';letter-spacing:0px;word-spacing:0px;fill:#ffffff;fill-opacity:1;stroke:none;stroke-width:1px;stroke-linecap:butt;stroke-linejoin:miter;stroke-opacity:1"
         id="path4230"
         inkscape:connector-curvature="0" />
      <path
         d="m 98.858479,1020.9879 7.292261,0 0,-4.0289 -11.724022,0 0,28.2021 4.431761,0 0,-11.6434 5.721001,0 0,-4.0289 -5.721001,0 0,-8.5009 z"
         style="font-style:normal;font-variant:normal;font-weight:bold;font-stretch:normal;font-size:medium;line-height:125%;font-family:'Bebas Neue';-inkscape-font-specification:'Bebas Neue Bold';letter-spacing:0px;word-spacing:0px;fill:#ffffff;fill-opacity:1;stroke:none;stroke-width:1px;stroke-linecap:butt;stroke-linejoin:miter;stroke-opacity:1"
         id="path4232"
         inkscape:connector-curvature="0" />
      <path
         d="m 112.70773,1020.9879 7.29226,0 0,-4.0289 -11.72402,0 0,28.2021 4.43176,0 0,-11.6434 5.721,0 0,-4.0289 -5.721,0 0,-8.5009 z"
         style="font-style:normal;font-variant:normal;font-weight:bold;font-stretch:normal;font-size:medium;line-height:125%;font-family:'Bebas Neue';-inkscape-font-specification:'Bebas Neue Bold';letter-spacing:0px;word-spacing:0px;fill:#ffffff;fill-opacity:1;stroke:none;stroke-width:1px;stroke-linecap:butt;stroke-linejoin:miter;stroke-opacity:1"
         id="path4234"
         inkscape:connector-curvature="0" />
      <path
         style="fill:#ffffff;fill-opacity:1"
         d="m 69.495967,1040.3784 c 0.09976,0.083 0.377819,0.2912 0.617906,0.4625 2.362837,1.6858 5.194637,2.4663 8.053801,2.2198 2.212591,-0.1907 4.473134,-1.0374 6.127046,-2.2948 0.230979,-0.1756 0.434528,-0.3047 0.45233,-0.2869 0.0178,0.018 0.44375,-0.379 0.946552,-0.8818 0.502801,-0.5028 0.899619,-0.9287 0.881817,-0.9465 -0.0178,-0.018 0.11131,-0.2214 0.286916,-0.4524 1.813473,-2.3853 2.660457,-5.7526 2.21877,-8.8211 -0.286354,-1.9894 -0.949598,-3.6524 -2.139332,-5.3642 -0.420335,-0.6048 -1.591895,-1.8443 -2.200913,-2.3285 -1.730766,-1.3761 -3.713751,-2.2379 -5.860183,-2.5469 -2.491301,-0.3586 -5.047355,0.073 -7.272154,1.2285 -0.802232,0.4166 -0.942122,0.5047 -1.704146,1.0733 l -0.713912,0.5327 -1.472841,-1.4297 c -0.810062,-0.7863 -1.455581,-1.4037 -1.434486,-1.3721 0.0211,0.032 -0.02277,0.4919 -0.09748,1.0228 -0.125446,0.8915 -0.336836,2.4723 -0.521993,3.9035 -0.04189,0.3238 -0.123123,0.9345 -0.18052,1.357 -0.09645,0.71 -0.153801,1.1401 -0.413347,3.0996 -0.05202,0.3927 -0.08146,0.7272 -0.06542,0.7432 0.01604,0.016 0.183054,0.01 0.371137,-0.024 0.188082,-0.029 0.689833,-0.098 1.115002,-0.1523 0.425169,-0.055 1.39997,-0.1833 2.166223,-0.2855 0.766254,-0.1022 1.823047,-0.2422 2.34843,-0.311 1.11245,-0.1458 3.351292,-0.4442 3.818863,-0.5091 l 0.322855,-0.045 -1.442307,-1.4423 -1.442307,-1.4423 0.225638,-0.1691 c 1.326703,-0.9944 2.866481,-1.5159 4.552368,-1.5417 1.265967,-0.019 2.375013,0.2251 3.500768,0.772 1.124385,0.5462 2.18576,1.447 2.872976,2.4383 1.243282,1.7935 1.690715,3.8995 1.269872,5.9772 -0.320004,1.5799 -0.95749,2.7647 -2.107732,3.9176 -1.136846,1.1394 -2.344878,1.7892 -3.917802,2.1075 -1.689972,0.3419 -3.526413,0.086 -5.0565,-0.7056 -0.653517,-0.338 -0.99348,-0.5767 -1.702147,-1.1952 -0.684723,-0.5977 -1.044301,-0.7739 -1.63365,-0.8004 -1.180188,-0.053 -2.177505,0.819 -2.26226,1.978 -0.02956,0.4042 0.06509,0.8747 0.239939,1.1929 0.146596,0.2668 0.748515,0.9019 1.252222,1.3214 z"
         id="path4215"
         inkscape:connector-curvature="0" />
    </g>
  </g>
</svg>
