<?xml version="1.0" encoding="UTF-8" standalone="no"?>
<!-- Created with Inkscape (http://www.inkscape.org/) -->

<svg
   xmlns:dc="http://purl.org/dc/elements/1.1/"
   xmlns:cc="http://creativecommons.org/ns#"
   xmlns:rdf="http://www.w3.org/1999/02/22-rdf-syntax-ns#"
   xmlns:svg="http://www.w3.org/2000/svg"
   xmlns="http://www.w3.org/2000/svg"
   xmlns:sodipodi="http://sodipodi.sourceforge.net/DTD/sodipodi-0.dtd"
   xmlns:inkscape="http://www.inkscape.org/namespaces/inkscape"
   width="1280"
   height="720"
   viewBox="0 0 1280 720"
   id="svg2"
   version="1.1"
   inkscape:version="0.91 r13725"
   sodipodi:docname="menu.svg"
   inkscape:export-filename="\\LUCA\Hackathon\assets\red-wins.png"
   inkscape:export-xdpi="90"
   inkscape:export-ydpi="90">
  <defs
     id="defs4" />
  <sodipodi:namedview
     id="base"
     pagecolor="#ffffff"
     bordercolor="#666666"
     borderopacity="1.0"
     inkscape:pageopacity="0.0"
     inkscape:pageshadow="2"
     inkscape:zoom="0.22627417"
     inkscape:cx="-95.63924"
     inkscape:cy="315.64725"
     inkscape:document-units="px"
     inkscape:current-layer="layer1"
     showgrid="false"
     units="px"
     inkscape:window-width="1920"
     inkscape:window-height="1017"
     inkscape:window-x="-8"
     inkscape:window-y="-8"
     inkscape:window-maximized="1" />
  <metadata
     id="metadata7">
    <rdf:RDF>
      <cc:Work
         rdf:about="">
        <dc:format>image/svg+xml</dc:format>
        <dc:type
           rdf:resource="http://purl.org/dc/dcmitype/StillImage" />
        <dc:title />
      </cc:Work>
    </rdf:RDF>
  </metadata>
  <g
     inkscape:label="Layer 1"
     inkscape:groupmode="layer"
     id="layer1"
     transform="translate(0,-332.36216)">
    <path
       id="rect4136"
       style="opacity:1;fill:#f12018;fill-opacity:1;stroke:#000000;stroke-width:1.35099995;stroke-linecap:round;stroke-linejoin:miter;stroke-miterlimit:4;stroke-dasharray:none;stroke-dashoffset:0;stroke-opacity:1"
       d="m -63.385053,146.21875 1814.285753,0 0,1022.85705 -1814.285753,0 z"
       inkscape:connector-curvature="0" />
    <path
       style="color:#000000;font-style:normal;font-variant:normal;font-weight:normal;font-stretch:normal;font-size:medium;line-height:normal;font-family:sans-serif;text-indent:0;text-align:start;text-decoration:none;text-decoration-line:none;text-decoration-style:solid;text-decoration-color:#000000;letter-spacing:normal;word-spacing:normal;text-transform:none;direction:ltr;block-progression:tb;writing-mode:lr-tb;baseline-shift:baseline;text-anchor:start;white-space:normal;clip-rule:nonzero;display:inline;overflow:visible;visibility:visible;opacity:1;isolation:auto;mix-blend-mode:normal;color-interpolation:sRGB;color-interpolation-filters:linearRGB;solid-color:#000000;solid-opacity:1;fill:#ff3313;fill-opacity:1;fill-rule:nonzero;stroke:none;stroke-width:25;stroke-linecap:round;stroke-linejoin:miter;stroke-miterlimit:4;stroke-dasharray:none;stroke-dashoffset:0;stroke-opacity:1;color-rendering:auto;image-rendering:auto;shape-rendering:auto;text-rendering:auto;enable-background:accumulate"
       d="m 610.58054,5.3484366 c -14.89401,0 -27.27539,12.3813704 -27.27539,27.2753904 l 0,143.912113 c 0,14.89401 12.38138,27.27539 27.27539,27.27539 l 401.34376,0 c 14.894,0 27.2754,-12.38138 27.2754,-27.27539 l 0,-143.912113 c 0,-14.89402 -12.3814,-27.2753904 -27.2754,-27.2753904 l -401.34376,0 z m 0,25.0000004 401.34376,0 c 1.4764,0 2.2754,0.79894 2.2754,2.27539 l 0,143.912113 c 0,1.47644 -0.799,2.27539 -2.2754,2.27539 l -401.34376,0 c -1.47644,0 -2.27539,-0.79895 -2.27539,-2.27539 l 0,-143.912113 c 0,-1.47645 0.79895,-2.27539 2.27539,-2.27539 z"
       id="rect4834"
       inkscape:connector-curvature="0" />
    <rect
       style="opacity:1;fill:#ffffff;fill-opacity:1;stroke:none;stroke-width:1.35099995;stroke-linecap:round;stroke-linejoin:miter;stroke-miterlimit:4;stroke-dasharray:none;stroke-dashoffset:0;stroke-opacity:1"
       id="rect4164"
       width="642.78497"
       height="1511.4286"
       x="0"
       y="2.8103147"
       transform="scale(-1,1)" />
    <rect
       y="113.92709"
       x="1280"
       height="1511.4286"
       width="608.64362"
       id="rect4166"
       style="opacity:1;fill:#ffffff;fill-opacity:1;stroke:none;stroke-width:1.35099995;stroke-linecap:round;stroke-linejoin:miter;stroke-miterlimit:4;stroke-dasharray:none;stroke-dashoffset:0;stroke-opacity:1" />
    <rect
       style="opacity:1;fill:#ffffff;fill-opacity:1;stroke:none;stroke-width:1.35099995;stroke-linecap:round;stroke-linejoin:miter;stroke-miterlimit:4;stroke-dasharray:none;stroke-dashoffset:0;stroke-opacity:1"
       id="rect4168"
       width="2177.1428"
       height="371.42856"
       x="-360"
       y="-332.36215"
       transform="scale(1,-1)" />
    <rect
       y="1052.3622"
       x="-391.42856"
       height="394.28574"
       width="2177.1428"
       id="rect4170"
       style="opacity:1;fill:#ffffff;fill-opacity:1;stroke:none;stroke-width:1.35099995;stroke-linecap:round;stroke-linejoin:miter;stroke-miterlimit:4;stroke-dasharray:none;stroke-dashoffset:0;stroke-opacity:1" />
    <path
       style="fill:#ffffff;fill-opacity:1"
       d="m -1391.8175,628.31275 c -1.0073,-0.43597 -1.709,-1.46244 -5.8877,-8.61358 -2.2704,-3.88547 -6.8993,-11.80163 -10.2864,-17.59162 -3.3871,-5.78996 -6.4656,-11.06402 -6.8408,-11.72008 -0.6229,-1.08889 -0.7129,-1.14927 -1.0345,-0.6926 -0.1939,0.27518 -5.1566,8.7905 -11.0286,18.92289 -5.872,10.13259 -10.9914,18.70324 -11.3768,19.04607 -1.0642,0.94695 -2.9059,0.86373 -4.0908,-0.1852 -0.768,-0.67977 -0.9124,-0.99934 -0.9075,-2.00845 0,-1.04429 0.6986,-2.40537 5.3406,-10.48069 2.9339,-5.10442 7.327,-12.77123 9.762,-17.03753 8.658,-15.16988 9.8544,-17.16974 10.6033,-17.72365 0.4889,-0.3615 1.1895,-0.56048 1.9733,-0.56048 1.6017,0 2.2496,0.62407 4.3027,4.14482 0.8921,1.52954 2.5363,4.33928 3.6541,6.24389 1.1179,1.90461 3.7078,6.33019 5.7555,9.83466 2.0477,3.50451 6.1336,10.48564 9.0791,15.5138 4.965,8.47473 5.3459,9.22113 5.2176,10.22435 -0.2508,1.95947 -2.5465,3.41415 -4.2351,2.68325 z m -94.4194,-0.44109 c -0.9158,-0.49299 -1.4851,-1.81285 -1.2868,-2.98284 0.084,-0.49253 0.81,-2.01774 1.6144,-3.38905 0.8045,-1.37129 2.8783,-4.92417 4.6086,-7.89537 1.7303,-2.97121 4.9629,-8.51875 7.1835,-12.32792 14.5749,-25.00084 20.3025,-34.84834 21.1752,-36.40693 1.3737,-2.45263 2.4565,-3.53279 3.7898,-3.78058 2.2678,-0.42142 3.0615,0.48438 7.5401,8.60582 0.5882,1.06656 2.9489,5.22677 5.246,9.24491 2.2972,4.01815 4.4343,7.83076 4.7491,8.47246 l 0.572,1.16672 -0.732,1.14893 c -0.4028,0.63193 -0.7323,1.20706 -0.7323,1.27812 0,0.41589 -2.0325,3.47006 -2.2293,3.34964 -0.1314,-0.0801 -1.0081,-1.48524 -1.9497,-3.12263 -5.5855,-9.71262 -11.9465,-20.39695 -12.1843,-20.46546 -0.1517,-0.0439 -3.5058,5.49374 -7.452,12.30577 -10.4046,17.96003 -24.6556,42.44777 -25.2652,43.41316 -0.2883,0.45705 -0.7844,1.04646 -1.102,1.30978 -0.7029,0.58289 -2.5304,0.6218 -3.5451,0.0759 z"
       id="path4651"
       inkscape:connector-curvature="0"
       inkscape:export-xdpi="90"
       inkscape:export-ydpi="90"
       sodipodi:nodetypes="ccscccccccccsccscccccccscccccccascccczccc" />
    <path
       style="fill:#ffffff;fill-opacity:1"
       d="m -2041.3128,587.39605 c -3.6654,-0.28286 -6.6841,-1.50505 -7.971,-3.22717 -1.2952,-1.73361 -1.5121,-4.54607 -0.4988,-6.46833 0.6274,-1.19023 1.436,-1.95848 2.775,-2.63648 0.5469,-0.27678 0.9942,-0.60773 0.9942,-0.73535 0,-0.12816 -0.2281,-0.41603 -0.5069,-0.64089 -1.2062,-0.97289 -1.7486,-2.74522 -1.3272,-4.33641 0.1854,-0.70034 0.5117,-1.17331 1.4896,-2.15993 l 1.2522,-1.26327 -0.9456,-0.73504 c -2.0734,-1.61156 -2.9026,-3.50524 -2.9054,-6.63477 0,-3.00843 0.5469,-4.66329 2.1109,-6.35613 1.1226,-1.21509 2.6191,-2.04682 4.7034,-2.61384 1.3756,-0.37424 2.9058,-0.39408 10.9383,-0.14188 l 5.3159,0.1669 0.4446,0.53398 c 0.4005,0.48123 0.4441,0.70687 0.4417,2.2838 0,1.02422 -0.099,1.94707 -0.2353,2.22557 -0.2136,0.43715 -0.3481,0.48032 -1.6562,0.53136 -0.7832,0.0307 -1.4239,0.1267 -1.4239,0.2136 0,0.0869 0.1766,0.57019 0.3923,1.07379 0.3356,0.78298 0.3778,1.15178 0.2918,2.54586 -0.1472,2.38507 -0.6792,3.78653 -1.9844,5.22711 -1.843,2.03387 -3.8807,2.851 -7.7842,3.12143 -2.619,0.18141 -3.3054,0.47325 -3.418,1.45327 -0.1297,1.1309 0.9743,1.63004 4.6476,2.10142 2.5157,0.32275 5.1997,1.01424 6.7813,1.74708 1.4132,0.6549 2.7301,2.09877 3.2745,3.59049 0.586,1.60638 0.484,4.08828 -0.2315,5.62835 -1.37,2.94879 -5.1985,5.06435 -9.9515,5.49874 -2.2126,0.20213 -2.473,0.20267 -5.0134,0 z m 5.3129,-5.92403 c 1.8417,-0.28272 2.721,-0.80933 3.0672,-1.83706 0.2512,-0.74565 0.2443,-0.83536 -0.1011,-1.32721 -0.6783,-0.96405 -1.782,-1.35973 -4.746,-1.70124 l -2.715,-0.31285 -0.9323,0.45077 c -1.3202,0.63838 -1.8207,1.31481 -1.8207,2.46077 0,0.78793 0.079,0.98887 0.5509,1.3987 1.0204,0.88636 4.0347,1.27716 6.6976,0.86812 z m -0.068,-20.0677 c 1.2766,-0.77174 1.9162,-2.46676 1.5149,-4.01531 -0.4947,-1.90992 -1.6158,-2.7207 -3.7719,-2.72788 -2.7134,-0.009 -4.1375,1.69808 -3.7339,4.47624 0.1389,0.95589 0.9516,2.07987 1.7482,2.41728 1.2881,0.54562 3.2037,0.47773 4.2427,-0.15037 z m -102.0206,15.39613 c -5.1217,-0.84818 -8.1855,-3.93213 -9.3143,-9.37579 -0.3535,-1.70445 -0.3939,-2.3562 -0.3176,-5.12407 0.075,-2.73353 0.156,-3.40711 0.5852,-4.8799 0.6799,-2.33283 1.2664,-3.38236 2.7793,-4.9731 2.0129,-2.11624 4.2491,-3.04098 7.8612,-3.25074 8.1774,-0.47488 12.8764,4.57363 12.8764,13.83394 0,7.23923 -2.8213,11.91213 -8.1107,13.43329 -1.0096,0.2904 -5.2746,0.51591 -6.3595,0.33637 z m 3.7975,-5.9984 c 1.0565,-0.37429 1.7968,-1.0992 2.3703,-2.32126 0.7552,-1.60903 0.9933,-3.30161 0.8843,-6.28425 -0.075,-2.06246 -0.1742,-2.72778 -0.5686,-3.82845 -0.8385,-2.34008 -2.512,-3.51862 -4.6297,-3.26048 -1.4486,0.1765 -2.4807,0.95596 -3.1928,2.41142 -0.8285,1.693 -1.0209,3.01352 -0.9141,6.27302 0.073,2.21446 0.1728,3.00123 0.5085,3.98298 0.4809,1.40689 1.6279,2.74138 2.6066,3.03244 0.866,0.25761 2.1999,0.2551 2.9355,0 z m 22.1165,5.81939 c -1.2438,-0.34522 -2.0468,-0.84646 -3.2938,-2.05611 -2.4761,-2.40211 -3.7259,-6.24215 -3.7259,-11.44799 0,-7.59321 2.8779,-12.4785 8.0549,-13.67333 2.2285,-0.5143 4.3315,-0.3251 6.2812,0.56507 0.5552,0.25353 1.0822,0.46096 1.1708,0.46096 0.088,0 0.1615,-2.64519 0.1615,-5.88286 l 0,-5.88284 0.5492,-0.47712 c 0.6571,-0.5708 2.3327,-0.81679 4.2107,-0.61815 1.4598,0.1544 2.0626,0.42381 2.375,1.06143 0.1822,0.37171 0.2363,4.01462 0.248,16.65254 0.013,12.20758 0.074,16.59696 0.2546,17.88957 0.3359,2.39801 0.2068,2.57571 -2.2228,3.05554 -1.6322,0.3225 -3.2643,0.35619 -3.768,0.0779 -0.3477,-0.19209 -0.9093,-1.3111 -0.9093,-1.81195 0,-0.13739 -0.087,-0.48724 -0.1944,-0.77736 l -0.1943,-0.52766 -0.7227,0.87287 c -1.9426,2.34637 -5.2599,3.35651 -8.2747,2.51969 z m 5.6072,-5.99643 c 0.5167,-0.1448 1.082,-0.56875 1.8893,-1.4168 l 1.1522,-1.21003 0,-5.98111 0,-5.98104 -0.9678,-0.44809 c -1.2018,-0.55645 -3.5781,-0.62507 -4.4701,-0.12921 -0.9088,0.50536 -1.7125,1.51192 -2.2509,2.81903 -0.4902,1.19017 -0.5076,1.34866 -0.5108,4.65777 0,3.16644 0.031,3.52404 0.4508,4.72549 0.8999,2.57636 2.4985,3.58282 4.7073,2.96386 z m -118.3118,5.79125 c -0.068,-0.07 -0.1228,-2.03787 -0.1228,-4.37366 0,-4.24643 0,-4.24669 0.4147,-4.35028 0.2281,-0.0568 7.7559,-0.0793 16.7283,-0.0515 l 16.3136,0.0529 0.05,4.42478 0.05,4.42492 -16.6549,0 c -9.1602,0 -16.7102,-0.0568 -16.7778,-0.12682 z m 50.569,-5.3e-4 c -0.1521,-0.0608 -0.4632,-0.28669 -0.6912,-0.50098 l -0.4148,-0.38947 0,-17.06203 0,-17.06197 0.4479,-0.43448 c 0.9165,-0.88885 5.2183,-1.01535 6.5297,-0.19192 l 0.5801,0.36422 0,7.09202 c 0,6.31176 0.095,7.91107 0.4362,7.55856 0.05,-0.0514 2.0068,-3.30328 4.3489,-7.22645 2.3423,-3.92318 4.4421,-7.32395 4.6665,-7.55723 0.5153,-0.5357 1.909,-0.81634 3.981,-0.80153 1.8669,0.0133 3.2711,0.2232 3.5717,0.5335 0.1552,0.16021 0.1618,0.36612 0.023,0.74244 -0.105,0.28637 -2.3781,3.98006 -5.0507,8.20815 -4.7992,7.59222 -4.8559,7.6936 -4.5761,8.18352 0.1558,0.27286 2.4251,3.87893 5.043,8.01353 6.6381,10.48401 6.3973,10.03668 5.6301,10.46063 -0.5538,0.30597 -6.709,0.25578 -7.4375,-0.0608 -0.4568,-0.19844 -0.873,-0.73457 -1.8102,-2.3313 -0.6694,-1.14055 -2.7648,-4.64291 -4.6564,-7.78314 -1.8915,-3.14022 -3.5103,-5.82855 -3.5973,-5.97409 -0.087,-0.14545 -0.2521,-0.20467 -0.3668,-0.1316 -0.1498,0.0956 -0.2086,2.29841 -0.2086,7.79649 l 0,7.66331 -0.4751,0.46135 c -0.4521,0.43888 -0.6025,0.46332 -3.0877,0.50098 -1.4369,0.0225 -2.7368,-0.0132 -2.889,-0.0714 z m 85.2587,-0.17056 c -0.3018,-0.16237 -0.6116,-0.3974 -0.6884,-0.52211 -0.077,-0.1242 -0.1409,-5.89853 -0.1424,-12.83073 l 0,-12.60397 0.4979,-0.33743 c 0.3805,-0.25786 0.9721,-0.35275 2.5082,-0.40239 2.437,-0.0789 3.1676,0.0459 3.7427,0.63986 l 0.4401,0.45453 0,12.29646 c 0,8.06968 -0.065,12.42233 -0.1897,12.66264 -0.3799,0.73298 -1.142,0.94105 -3.4416,0.93987 -1.6057,-0.001 -2.3188,-0.078 -2.7239,-0.29673 z m 13.4207,0.0278 c -0.3216,-0.1485 -0.6741,-0.44259 -0.7834,-0.65357 -0.1353,-0.26107 -0.199,-3.72616 -0.199,-10.84671 0,-8.37461 -0.054,-10.75244 -0.2686,-11.91273 -0.1478,-0.79733 -0.2207,-1.57881 -0.1621,-1.73663 0.1672,-0.45021 0.9678,-0.78995 2.6269,-1.11486 1.8326,-0.35892 2.8998,-0.37695 3.5051,-0.0592 0.3946,0.20736 0.8749,1.27972 1.2413,2.77262 0.038,0.15863 0.4791,-0.13562 1.1755,-0.78639 2.5039,-2.33939 5.246,-3.186 8.392,-2.59103 2.7266,0.51568 4.4547,2.26079 5.0343,5.08374 0.1382,0.67344 0.207,4.35424 0.207,11.07843 l 0,10.06994 -0.4009,0.38564 c -0.5461,0.52529 -1.222,0.62557 -3.7103,0.55013 -1.9532,-0.0595 -2.1664,-0.1017 -2.6026,-0.52595 l -0.4751,-0.46135 0,-8.94667 c 0,-8.62227 -0.013,-8.97589 -0.3769,-9.7504 -0.4779,-1.01934 -1.2392,-1.40999 -2.7477,-1.40999 -1.4057,0 -1.9124,0.26406 -3.1159,1.62357 l -0.9486,1.07153 0,8.63334 0,8.63343 -0.4444,0.53401 c -0.4413,0.53004 -0.462,0.53427 -2.9033,0.58157 -1.8089,0.0357 -2.6134,-0.0237 -3.0434,-0.22235 z m -149.2469,-13.55814 c -0.068,-0.0705 -0.1242,-2.03169 -0.1242,-4.3582 0,-3.68162 0.038,-4.24496 0.2915,-4.34551 0.1604,-0.0637 5.8738,-0.11547 12.6965,-0.11547 10.3066,0 12.4406,0.0443 12.6155,0.26193 0.1472,0.18321 0.1957,1.51439 0.1607,4.42482 l -0.05,4.16287 -12.7331,0.0487 c -7.0032,0.0268 -12.789,-0.009 -12.8573,-0.0793 z m 0,-13.70397 c -0.068,-0.0698 -0.1228,-2.02955 -0.1228,-4.35504 0,-4.22387 4e-4,-4.22828 0.4147,-4.34292 0.544,-0.1506 32.463,-0.15484 32.8425,-0.004 0.2541,0.10056 0.2916,0.67506 0.2916,4.47242 l 0,4.35686 -16.6515,0 c -9.1584,0 -16.7069,-0.0572 -16.7745,-0.12696 z m 136.2185,-4.25573 c -1.1589,-0.35859 -1.2245,-0.54739 -1.2245,-3.53113 0,-2.66587 0.013,-2.72316 0.4579,-3.08805 0.5627,-0.45692 2.6829,-0.69806 4.4348,-0.50436 0.8964,0.0992 1.3585,0.25791 1.7564,0.60359 l 0.54,0.46908 0,2.43152 c 0,2.77799 -0.1915,3.25999 -1.437,3.61709 -0.8106,0.23248 -3.7787,0.23393 -4.5276,0.003 z"
       id="path4649"
       inkscape:connector-curvature="0"
       inkscape:export-xdpi="90"
       inkscape:export-ydpi="90" />
    <path
       style="fill:#ffffff;fill-opacity:1"
       d="m -1818.1824,555.75075 c -2.7052,-1.0448 -4.8521,-2.5079 -4.8521,-3.3067 0,-0.3608 0.831,-1.4661 1.8467,-2.4563 l 1.8467,-1.8003 1.8563,1.1382 c 2.7339,1.6765 7.5177,1.5659 10.8337,-0.2505 3.7013,-2.0275 5.2193,-4.5516 5.4311,-9.0306 0.2156,-4.5621 -1.1488,-7.2409 -5.0194,-9.8545 -2.2937,-1.54876 -3.1251,-1.79327 -6.0977,-1.79327 -2.9782,0 -3.7958,0.24156 -6.0701,1.79327 -2.9321,2.0006 -4.402,3.8079 -4.9364,6.0696 l -0.3585,1.5174 3.1225,0 c 1.7173,0 3.0401,0.2124 2.9395,0.472 -0.3599,0.9292 -8.5266,9.4591 -9.0127,9.4137 -0.4801,-0.045 -7.9897,-8.5194 -8.3592,-9.4334 -0.1007,-0.2487 1.0625,-0.4523 2.5845,-0.4523 l 2.7676,0 0.6145,-2.345 c 2.1719,-8.28738 9.492,-13.59483 17.9141,-12.98872 6.5626,0.47229 11.1479,3.52557 14.3269,9.54002 1.249,2.3632 1.4582,3.4316 1.4582,7.4491 0,4.0327 -0.2061,5.0769 -1.4702,7.449 -1.9719,3.7002 -5.0516,6.8147 -8.0868,8.1779 -3.1824,1.4292 -10.3962,1.8049 -13.2792,0.6914 z m 24.7716,-11.0764 c 0,-5.7018 -0.205,-9.1044 -0.5486,-9.1044 -0.3017,0 -0.5485,-0.8691 -0.5485,-1.9312 0,-1.0622 0.2468,-1.9313 0.5485,-1.9313 0.3018,0 0.5486,-0.7174 0.5486,-1.5942 0,-2.89274 1.581,-4.1079 5.6869,-4.37087 l 3.6392,-0.23307 0,1.68299 c 0,1.42577 -0.2306,1.70964 -1.5087,1.85756 -1.0802,0.125 -1.5584,0.52719 -1.6839,1.41609 -0.1571,1.113 0.056,1.2415 2.0573,1.2415 2.0958,0 2.2325,-0.098 2.2325,-1.5942 0,-2.89274 1.581,-4.1079 5.6868,-4.37087 l 3.6392,-0.23307 0,1.68299 c 0,1.42577 -0.2306,1.70964 -1.5086,1.85756 -1.0802,0.125 -1.5584,0.52719 -1.684,1.41609 -0.1492,1.0562 0.077,1.2415 1.5086,1.2415 1.5588,0 1.684,0.1436 1.684,1.9313 0,1.5633 -0.209,1.9312 -1.0972,1.9312 -1.0529,0 -1.0972,0.3679 -1.0972,9.1044 l 0,9.1044 -3.5658,0 -3.5658,0 0,-9.1044 0,-9.1044 -1.6458,0 -1.6458,0 0,9.1044 0,9.1044 -3.5658,0 -3.5659,0 0,-9.1044 z m -111.9009,3.4486 c -3.8855,-1.9969 -4.5391,-3.3391 -4.8252,-9.9076 -0.1478,-3.3909 0.01,-6.6285 0.3864,-8.0331 0.7619,-2.8278 2.2039,-3.84149 10.3416,-7.26986 3.1019,-1.30679 5.8791,-2.82579 6.1716,-3.37556 0.7044,-1.32387 0.6809,-6.38251 -0.036,-7.72977 -0.6399,-1.20287 -2.1739,-1.39939 -3.1625,-0.40516 -0.3994,0.40182 -0.6582,2.35426 -0.6582,4.96604 l 0,4.3039 -6.6605,0 -6.6603,0 0.284,-4.57884 c 0.3609,-5.81871 1.7173,-8.66829 5.1763,-10.87472 3.2152,-2.0509 7.6581,-2.97005 12.5585,-2.59817 4.4466,0.33742 7.5138,1.46664 9.77,3.59672 3.1984,3.01967 3.2913,3.65184 3.5276,23.97322 l 0.2166,18.6227 -6.9118,0 -6.9118,0 0,-2.0692 0,-2.0692 -1.2315,1.5067 c -1.459,1.7849 -4.5923,3.1835 -7.1323,3.1835 -1.0018,0 -2.9085,-0.5587 -4.237,-1.2416 z m 11.9481,-7.6973 c 0.7511,-0.7555 0.9512,-13.13244 0.2122,-13.13244 -0.2452,0 -1.1668,0.75682 -2.0479,1.68178 -1.4157,1.48636 -1.6254,2.15146 -1.8047,5.72386 -0.1191,2.3709 0.056,4.5273 0.4213,5.2155 0.6895,1.2959 2.2004,1.5358 3.2191,0.5113 z m -55.2979,-19.47793 0,-27.86498 7.1317,0 7.1317,0 0,9.65618 0,9.65619 2.4686,0 2.4687,0 0,-9.65619 0,-9.65618 7.1316,0 7.1316,0 0,27.86498 0,27.86503 -7.1316,0 -7.1316,0 0,-11.8633 0,-11.86337 -2.4687,0 -2.4686,0 0,11.86337 0,11.8633 -7.1317,0 -7.1317,0 0,-27.86503 z m 72.0815,26.89933 c 0.1597,-0.531 1.5486,-5.8785 3.0865,-11.8833 l 2.7963,-10.91766 -2.814,-10.2444 c -1.5477,-5.63444 -2.9464,-10.59146 -3.1083,-11.01565 -0.2404,-0.63019 0.7565,-0.77123 5.4513,-0.77123 l 5.7455,0 1.5212,7.74014 c 0.8367,4.25704 1.586,7.6712 1.6652,7.58698 0.1487,-0.15805 2.9949,-14.41158 2.9949,-14.99802 0,-0.18101 2.8653,-0.3291 6.3674,-0.3291 5.2275,0 6.3148,0.13807 6.0733,0.77123 -0.1619,0.42419 -1.5564,5.36587 -3.099,10.98152 l -2.8046,10.21028 3.523,11.77951 3.523,11.7795 -6.5912,0.1555 c -3.6252,0.085 -6.6755,0.071 -6.7783,-0.033 -0.1029,-0.1035 -0.8674,-3.6446 -1.6989,-7.8692 l -1.5117,-7.681 -0.6319,3.0235 c -0.3476,1.6629 -1.0697,5.1962 -1.6046,7.8516 l -0.9725,4.8281 -5.7114,0 c -5.1843,0 -5.6847,-0.089 -5.4212,-0.9656 z m 58.0604,-32.42152 c -4.0421,-1.12736 -5.6674,-2.0716 -7.9611,-4.62519 -4.133,-4.60139 -5.696,-9.91561 -4.5548,-15.4861 1.7839,-8.70687 8.6005,-14.09398 17.6006,-13.90962 7.6308,0.15632 14.176,5.37105 16.2158,12.91963 0.486,1.79865 0.7715,2.06918 2.1837,2.06918 l 1.6246,0 0,-4.13837 0,-4.13836 3.5659,0 c 2.8759,0 3.5658,0.16776 3.5658,0.86708 0,0.78792 0.079,0.78799 0.8612,5.5e-4 2.0741,-2.08603 5.9776,-1.65479 7.2108,0.79661 0.4752,0.94478 0.6917,4.4116 0.6974,11.16442 l 0.01,9.7944 -3.5658,0 -3.5659,0 0,-9.70217 c 0,-7.51621 -0.1545,-9.65047 -0.6857,-9.47278 -0.5051,0.16897 -0.7252,2.72461 -0.8358,9.70217 l -0.1501,9.47278 -3.5529,0 -3.5529,0 0,-5.28607 0,-5.28604 -3.146,3.70665 -3.1459,3.70667 -4.8061,-5.09866 c -2.6434,-2.80427 -4.6693,-5.32146 -4.502,-5.59376 0.1673,-0.27232 1.6508,-0.49512 3.2965,-0.49512 l 2.9922,0 -0.8585,-2.06918 c -0.9842,-2.37226 -2.869,-4.15023 -6.0136,-5.67269 -7.5406,-3.65079 -16.6136,3.14 -15.4867,11.59112 0.4309,3.23122 2.3477,5.91758 5.5335,7.75546 3.5021,2.02028 6.9236,2.16589 10.446,0.44461 l 2.4423,-1.19347 1.9612,2.03118 c 1.0785,1.11713 1.9534,2.21288 1.9439,2.43495 -0.029,0.67699 -2.5967,2.33819 -4.8505,3.13801 -3.4862,1.23717 -7.7326,1.45974 -10.9151,0.57211 z"
       id="path4647"
       inkscape:connector-curvature="0"
       inkscape:export-xdpi="90"
       inkscape:export-ydpi="90" />
    <g
       id="g5594"
       transform="matrix(14.102215,-8.1419175,8.1419175,14.102215,-7532.2097,-13658.807)">
      <path
         id="rect4912"
         d="m 10,1042.3622 0,10 0,4 -1,0 0,2 1,0 0,5 -1,0 0,2 1,0 4,0 0,-1 1,0 0,1 1,0 4,0 0,-1 1,0 0,-1 -1,0 0,-11 0,-10 -10,0 z m 4,10 2,0 0,4 -1,0 0,2 1,0 0,5 -1,0 -1,0 0,-11 z"
         style="opacity:1;fill:#000000;fill-opacity:1;stroke:none;stroke-width:2;stroke-miterlimit:4;stroke-dasharray:none;stroke-dashoffset:0;stroke-opacity:1"
         inkscape:connector-curvature="0" />
      <path
         id="rect4890"
         transform="translate(-12,1033.3622)"
         d="m 22,9 0,1 1,0 0,1 1,0 0,-1 6,0 0,1 1,0 0,-1 1,0 0,-1 -10,0 z m 8,2 -1,0 0,1 1,0 0,-1 z m -1,1 -1,0 0,1 1,0 0,-1 z m -1,1 -2,0 0,2 2,0 0,-2 z m 0,2 0,1 1,0 0,-1 -1,0 z m 1,1 0,1 1,0 0,-1 -1,0 z m 1,1 0,1 -6,0 0,-1 -1,0 0,1 -1,0 0,1 1,0 0,1 1,0 0,-1 5,0 0,1 1,0 0,-1 2,0 0,-1 -1,0 0,-1 -1,0 z m 0,3 0,1 1,0 0,-1 -1,0 z m 0,1 -1,0 0,1 1,0 0,-1 z m 0,1 0,1 1,0 0,-1 -1,0 z m 0,1 -1,0 0,1 1,0 0,-1 z m 0,1 0,1 1,0 0,-1 -1,0 z m 0,1 -1,0 0,1 1,0 0,-1 z m 0,1 0,1 1,0 0,-1 -1,0 z m 0,1 -1,0 0,1 1,0 0,-1 z m 0,1 0,1 1,0 0,-1 -1,0 z m 0,1 -1,0 0,1 1,0 0,-1 z m -6,-9 0,1 1,0 0,-1 -1,0 z m 0,1 -1,0 0,1 1,0 0,-1 z m 0,1 0,1 1,0 0,-1 -1,0 z m 0,1 -1,0 0,1 1,0 0,-1 z m 0,1 0,1 1,0 0,-1 -1,0 z m 0,1 -1,0 0,1 1,0 0,-1 z m 0,1 0,1 1,0 0,-1 -1,0 z m 0,1 -1,0 0,1 1,0 0,-1 z m 0,1 0,1 1,0 0,-1 -1,0 z m 0,1 -1,0 0,1 1,0 0,-1 z m 0,-12 1,0 0,-1 -1,0 0,1 z m 1,-1 1,0 0,-1 -1,0 0,1 z m 1,-3 0,-1 -1,0 0,1 1,0 z m -1,-1 0,-1 -1,0 0,1 1,0 z"
         style="opacity:1;fill:#ff0300;fill-opacity:1;stroke:none;stroke-width:2;stroke-miterlimit:4;stroke-dasharray:none;stroke-dashoffset:0;stroke-opacity:1"
         inkscape:connector-curvature="0" />
      <path
         inkscape:connector-curvature="0"
         style="opacity:1;fill:#000000;fill-opacity:1;stroke:none;stroke-width:2;stroke-miterlimit:4;stroke-dasharray:none;stroke-dashoffset:0;stroke-opacity:1"
         d="m 9,1033.3622 0,2 11,0 0,1 -1,0 0,2 -6,0 -3,0 0,-2 -1,0 0,6 1,0 3,0 3,0 3,0 1,0 1,0 0,-5 1,0 0,-1 -1,0 0,-1 1,0 0,-1 -1,0 0,-1 -12,0 z m 13,1 1,0 0,1 1,0 0,-1 0,-1 -2,0 0,1 z m 1,1 -1,0 0,1 1,0 0,-1 z m -10,4 3,0 0,1 -3,0 0,-1 z"
         id="path4822" />
      <rect
         style="opacity:1;fill:#ff0300;fill-opacity:1;stroke:none;stroke-width:2;stroke-miterlimit:4;stroke-dasharray:none;stroke-dashoffset:0;stroke-opacity:1"
         id="rect4824"
         width="11"
         height="1"
         x="9"
         y="1035.3622" />
      <rect
         style="opacity:1;fill:#ff0300;fill-opacity:1;stroke:none;stroke-width:2;stroke-miterlimit:4;stroke-dasharray:none;stroke-dashoffset:0;stroke-opacity:1"
         id="rect4826"
         width="1"
         height="1"
         x="21"
         y="1035.3622" />
      <rect
         style="opacity:1;fill:#ff0300;fill-opacity:1;stroke:none;stroke-width:2;stroke-miterlimit:4;stroke-dasharray:none;stroke-dashoffset:0;stroke-opacity:1"
         id="rect4828"
         width="1"
         height="1"
         x="22"
         y="1034.3622" />
      <rect
         style="opacity:1;fill:#d7ba8d;fill-opacity:1;stroke:none;stroke-width:2;stroke-miterlimit:4;stroke-dasharray:none;stroke-dashoffset:0;stroke-opacity:1"
         id="rect4830"
         width="9"
         height="2"
         x="10"
         y="1036.3622" />
      <rect
         style="opacity:1;fill:#d7ba8d;fill-opacity:1;stroke:none;stroke-width:2;stroke-miterlimit:4;stroke-dasharray:none;stroke-dashoffset:0;stroke-opacity:1"
         id="rect4832"
         width="3"
         height="1"
         x="13"
         y="1039.3622" />
      <rect
         style="opacity:1;fill:#000000;fill-opacity:1;stroke:none;stroke-width:2;stroke-miterlimit:4;stroke-dasharray:none;stroke-dashoffset:0;stroke-opacity:1"
         id="rect4834-3"
         width="1"
         height="1"
         x="11"
         y="1036.3622" />
      <rect
         style="opacity:1;fill:#000000;fill-opacity:1;stroke:none;stroke-width:2;stroke-miterlimit:4;stroke-dasharray:none;stroke-dashoffset:0;stroke-opacity:1"
         id="rect4836"
         width="1"
         height="1"
         x="17"
         y="1036.3622" />
    </g>
    <g
       id="g5619"
       transform="matrix(14.102215,-8.1419175,8.1419175,14.102215,-9809.1819,-13157.968)">
      <path
         inkscape:connector-curvature="0"
         style="opacity:1;fill:#000000;fill-opacity:1;stroke:none;stroke-width:2;stroke-miterlimit:4;stroke-dasharray:none;stroke-dashoffset:0;stroke-opacity:1"
         d="m 51,1030.3622 0,10 0,4 -1,0 0,2 1,0 0,5 -1,0 0,2 1,0 4,0 0,-1 1,0 0,1 1,0 4,0 0,-1 1,0 0,-1 -1,0 0,-11 0,-10 -10,0 z m 4,10 2,0 0,4 -1,0 0,2 1,0 0,5 -1,0 -1,0 0,-11 z"
         id="path5542" />
      <path
         inkscape:connector-curvature="0"
         style="opacity:1;fill:#180df1;fill-opacity:1;stroke:none;stroke-width:2;stroke-miterlimit:4;stroke-dasharray:none;stroke-dashoffset:0;stroke-opacity:1"
         d="m 51,1030.3622 0,1 1,0 0,1 1,0 0,-1 6,0 0,1 1,0 0,-1 1,0 0,-1 -10,0 z m 8,2 -1,0 0,1 1,0 0,-1 z m -1,1 -1,0 0,1 1,0 0,-1 z m -1,1 -2,0 0,2 2,0 0,-2 z m 0,2 0,1 1,0 0,-1 -1,0 z m 1,1 0,1 1,0 0,-1 -1,0 z m 1,1 0,1 -6,0 0,-1 -1,0 0,1 -1,0 0,1 1,0 0,1 1,0 0,-1 5,0 0,1 1,0 0,-1 2,0 0,-1 -1,0 0,-1 -1,0 z m 0,3 0,1 1,0 0,-1 -1,0 z m 0,1 -1,0 0,1 1,0 0,-1 z m 0,1 0,1 1,0 0,-1 -1,0 z m 0,1 -1,0 0,1 1,0 0,-1 z m 0,1 0,1 1,0 0,-1 -1,0 z m 0,1 -1,0 0,1 1,0 0,-1 z m 0,1 0,1 1,0 0,-1 -1,0 z m 0,1 -1,0 0,1 1,0 0,-1 z m 0,1 0,1 1,0 0,-1 -1,0 z m 0,1 -1,0 0,1 1,0 0,-1 z m -6,-9 0,1 1,0 0,-1 -1,0 z m 0,1 -1,0 0,1 1,0 0,-1 z m 0,1 0,1 1,0 0,-1 -1,0 z m 0,1 -1,0 0,1 1,0 0,-1 z m 0,1 0,1 1,0 0,-1 -1,0 z m 0,1 -1,0 0,1 1,0 0,-1 z m 0,1 0,1 1,0 0,-1 -1,0 z m 0,1 -1,0 0,1 1,0 0,-1 z m 0,1 0,1 1,0 0,-1 -1,0 z m 0,1 -1,0 0,1 1,0 0,-1 z m 0,-12 1,0 0,-1 -1,0 0,1 z m 1,-1 1,0 0,-1 -1,0 0,1 z m 1,-3 0,-1 -1,0 0,1 1,0 z m -1,-1 0,-1 -1,0 0,1 1,0 z"
         id="path5544" />
      <path
         id="path5546"
         d="m 50,1021.3622 0,2 11,0 0,1 -1,0 0,2 -6,0 -3,0 0,-2 -1,0 0,6 1,0 3,0 3,0 3,0 1,0 1,0 0,-5 1,0 0,-1 -1,0 0,-1 1,0 0,-1 -1,0 0,-1 -12,0 z m 13,1 1,0 0,1 1,0 0,-1 0,-1 -2,0 0,1 z m 1,1 -1,0 0,1 1,0 0,-1 z m -10,4 3,0 0,1 -3,0 0,-1 z"
         style="opacity:1;fill:#000000;fill-opacity:1;stroke:none;stroke-width:2;stroke-miterlimit:4;stroke-dasharray:none;stroke-dashoffset:0;stroke-opacity:1"
         inkscape:connector-curvature="0" />
      <rect
         y="1023.3622"
         x="50"
         height="1"
         width="11"
         id="rect5548"
         style="opacity:1;fill:#180df1;fill-opacity:1;stroke:none;stroke-width:2;stroke-miterlimit:4;stroke-dasharray:none;stroke-dashoffset:0;stroke-opacity:1" />
      <rect
         y="1023.3622"
         x="62"
         height="1"
         width="1"
         id="rect5550"
         style="opacity:1;fill:#180df1;fill-opacity:1;stroke:none;stroke-width:2;stroke-miterlimit:4;stroke-dasharray:none;stroke-dashoffset:0;stroke-opacity:1" />
      <rect
         y="1022.3622"
         x="63"
         height="1"
         width="1"
         id="rect5552"
         style="opacity:1;fill:#180df1;fill-opacity:1;stroke:none;stroke-width:2;stroke-miterlimit:4;stroke-dasharray:none;stroke-dashoffset:0;stroke-opacity:1" />
      <rect
         y="1024.3622"
         x="51"
         height="2"
         width="9"
         id="rect5554"
         style="opacity:1;fill:#d7ba8d;fill-opacity:1;stroke:none;stroke-width:2;stroke-miterlimit:4;stroke-dasharray:none;stroke-dashoffset:0;stroke-opacity:1" />
      <rect
         y="1027.3622"
         x="54"
         height="1"
         width="3"
         id="rect5556"
         style="opacity:1;fill:#d7ba8d;fill-opacity:1;stroke:none;stroke-width:2;stroke-miterlimit:4;stroke-dasharray:none;stroke-dashoffset:0;stroke-opacity:1" />
      <rect
         y="1024.3622"
         x="52"
         height="1"
         width="1"
         id="rect5558"
         style="opacity:1;fill:#000000;fill-opacity:1;stroke:none;stroke-width:2;stroke-miterlimit:4;stroke-dasharray:none;stroke-dashoffset:0;stroke-opacity:1" />
      <rect
         y="1024.3622"
         x="58"
         height="1"
         width="1"
         id="rect5560"
         style="opacity:1;fill:#000000;fill-opacity:1;stroke:none;stroke-width:2;stroke-miterlimit:4;stroke-dasharray:none;stroke-dashoffset:0;stroke-opacity:1" />
    </g>
    <g
       transform="matrix(0.75,0,0,0.75,-2585.3125,-927.22197)"
       id="layer1-7"
       inkscape:label="Layer 1"
       style="fill:#ffffff;fill-opacity:1">
      <rect
         style="opacity:1;fill:#ffffff;fill-opacity:1;stroke:none;stroke-width:2;stroke-miterlimit:4;stroke-dasharray:none;stroke-dashoffset:0;stroke-opacity:1"
         id="rect6354"
         width="1280"
         height="20"
         x="0"
         y="852.36218" />
      <g
         id="flowRoot7096"
         style="font-style:normal;font-variant:normal;font-weight:normal;font-stretch:normal;font-size:175.29078674px;line-height:125%;font-family:'CF Samurai Bob';-inkscape-font-specification:'CF Samurai Bob';letter-spacing:0px;word-spacing:0px;fill:#ffffff;fill-opacity:1;stroke:none;stroke-width:1px;stroke-linecap:butt;stroke-linejoin:miter;stroke-opacity:1"
         transform="matrix(1.000781,0,0,1.000781,10.038703,49.11533)">
        <path
           style="fill:#ffffff;fill-opacity:1"
           sodipodi:nodetypes="cccccccccccccc"
           inkscape:connector-curvature="0"
           id="path7105"
           d="M 47.242071,928.6709 36.237248,940.02625 10.302893,912.24109 c -0.701163,0.70116 -1.3438958,1.40232 -1.9281985,2.10349 -0.5843026,0.5843 -1.2270355,1.1686 -1.9281986,1.75291 l 0,23.8517 -16.4773339,0 0,-75.72562 16.8279154,0 0,27.85908 21.4586986,-25.53791 13.714091,9.34723 -20.097782,24.77993 z" />
        <path
           style="fill:#ffffff;fill-opacity:1"
           inkscape:connector-curvature="0"
           id="path7107"
           d="m 115.69648,940.12448 -54.164853,0 0,-75.55033 16.477334,0 0,59.073 20.859604,0 0,-59.073 16.827915,0 0,75.55033 z" />
        <path
           style="fill:#ffffff;fill-opacity:1"
           inkscape:connector-curvature="0"
           id="path7109"
           d="m 184.02703,939.7739 -16.30204,0 0,-28.22181 -22.61251,-23.13839 0,51.3602 -16.82792,0 0,-75.37504 16.47734,0 q 5.43401,5.43402 11.3939,11.39391 6.13517,5.95988 11.21861,11.04331 l 0,-22.7878 16.65262,0 0,75.72562 z" />
        <path
           style="fill:#ffffff;fill-opacity:1"
           inkscape:connector-curvature="0"
           id="path7111"
           d="m 256.68233,913.1297 -4.55756,0 0,27.17007 -53.98957,0 0,-75.72562 54.51544,0 0,15.95147 -38.21339,0 0,42.94624 21.21018,0 0,-10.34216 -11.04332,0 0,-16.47733 32.07822,0 0,16.47733 z" />
        <path
           style="fill:#ffffff;fill-opacity:1"
           inkscape:connector-curvature="0"
           id="path7113"
           d="m 365.13802,880.70091 -37.68752,0 q -0.35058,2.97994 -0.17529,5.78459 0.17529,2.80466 0.17529,5.7846 l 22.61252,0 0,16.82791 -22.43722,0 0,30.67589 -17.1785,0 0.52587,-0.70116 0,-29.44885 q -2.80465,-0.87646 -5.7846,0 l 0,-16.47734 q 0.35059,-0.35058 1.05175,-0.35058 0.87645,0 1.75291,0 0.87645,0 1.57761,0 0.87646,-0.17529 1.22704,-0.87645 0.17529,-7.01163 -0.17529,-13.84797 -0.17529,-7.01164 -0.17529,-13.84798 l 54.69072,0 0,16.47734 z" />
        <path
           style="fill:#ffffff;fill-opacity:1"
           inkscape:connector-curvature="0"
           id="path7115"
           d="m 433.41105,940.12448 -54.16485,0 0,-75.55033 16.47733,0 0,59.073 20.8596,0 0,-59.073 16.82792,0 0,75.55033 z" />
        <path
           style="fill:#ffffff;fill-opacity:1"
           inkscape:connector-curvature="0"
           id="path7117"
           d="m 545.91487,911.55209 -37.51222,0 0,28.92298 -16.65263,0 0,-58.89771 q -3.6811,-0.52587 -7.5375,0 l 0,-16.82791 61.70235,0 0,46.80264 z m -16.65262,-16.82792 0,-13.3221 -20.8596,0 0,13.3221 20.8596,0 z" />
        <path
           style="fill:#ffffff;fill-opacity:1"
           inkscape:connector-curvature="0"
           id="path7119"
           d="m 614.71377,940.65036 -53.81427,0 0,-75.37504 53.81427,0 0,75.37504 z m -16.65262,-16.47734 0,-42.24508 -21.0349,0 0,42.24508 21.0349,0 z" />
        <path
           style="fill:#ffffff;fill-opacity:1"
           inkscape:connector-curvature="0"
           id="path7121"
           d="m 687.37724,913.1297 -4.55756,0 0,27.17007 -53.98956,0 0,-75.72562 54.51543,0 0,15.95147 -38.21339,0 0,42.94624 21.21019,0 0,-10.34216 -11.04332,0 0,-16.47733 32.07821,0 0,16.47733 z" />
        <path
           style="fill:#ffffff;fill-opacity:1"
           inkscape:connector-curvature="0"
           id="path7123"
           d="m 751.6597,940.65036 -53.81428,0 0,-75.37504 53.81428,0 0,75.37504 z m -16.65263,-16.47734 0,-42.24508 -21.03489,0 0,42.24508 21.03489,0 z" />
        <path
           style="fill:#ffffff;fill-opacity:1"
           inkscape:connector-curvature="0"
           id="path7125"
           d="m 864.99062,880.70091 -37.68752,0 q -0.35058,2.97994 -0.17529,5.78459 0.17529,2.80466 0.17529,5.7846 l 22.61252,0 0,16.82791 -22.43722,0 0,30.67589 -17.1785,0 0.52587,-0.70116 0,-29.44885 q -2.80465,-0.87646 -5.7846,0 l 0,-16.47734 q 0.35059,-0.35058 1.05175,-0.35058 0.87645,0 1.75291,0 0.87645,0 1.57761,0 0.87646,-0.17529 1.22704,-0.87645 0.17529,-7.01163 -0.17529,-13.84797 -0.17529,-7.01164 -0.17529,-13.84798 l 54.69072,0 0,16.47734 z" />
        <path
           style="fill:#ffffff;fill-opacity:1"
           inkscape:connector-curvature="0"
           id="path7127"
           d="m 911.87817,880.35033 q -1.7529,0 -3.6811,0.17529 -1.9282,0.17529 -4.03169,-0.17529 l 0,42.94624 7.01163,0 0,16.47733 -31.90292,0 0,-16.30204 8.06337,0 0,-42.42037 -0.70116,-0.70116 q -0.35058,0.17529 -0.52587,0.35058 0,0 -0.70117,0 -0.52587,0 -1.92819,0 -1.22704,-0.17529 -3.8564,-0.35058 l 0,-16.30205 32.2535,0 0,16.30205 z" />
        <path
           style="fill:#ffffff;fill-opacity:1"
           inkscape:connector-curvature="0"
           id="path7129"
           d="m 984.89232,913.1297 -4.55756,0 0,27.17007 -53.98956,0 0,-75.72562 54.51543,0 0,15.95147 -38.21339,0 0,42.94624 21.21018,0 0,-10.34216 -11.04332,0 0,-16.47733 32.07822,0 0,16.47733 z" />
        <path
           style="fill:#ffffff;fill-opacity:1"
           inkscape:connector-curvature="0"
           id="path7131"
           d="m 1048.9994,940.29977 -16.6526,0 0,-30.67588 q -1.9282,0.17529 -4.5576,0.17529 -2.454,0 -5.2587,0 -2.6294,0 -5.434,0 -2.6294,0 -4.9081,0 -0.1753,0.17529 -0.3506,0.17529 -0.3506,0.35058 -0.3506,0.35058 -0.1753,7.36221 -0.1753,15.07501 0,7.71279 0.3506,14.37384 -0.1753,0.17529 -0.7012,0.35058 -0.5259,0 -2.2788,0 -1.5776,0 -4.9081,0 -3.3305,0 -9.11512,-0.17529 l 0,-75.37504 17.52912,0 -0.3506,0.35059 q -0.3506,0.35058 -0.3506,0.70116 0,3.15523 0,6.83634 0,3.50582 0,7.18692 0,3.68111 0,7.18692 0.1753,3.50582 0.1753,6.31047 3.5058,0.35058 9.2904,0.35058 5.9599,0 11.2186,-0.35058 l 0,-28.5724 16.8279,0 0,75.72562 z" />
        <path
           style="fill:#ffffff;fill-opacity:1"
           inkscape:connector-curvature="0"
           id="path7133"
           d="m 1123.9581,881.22678 -22.7878,0 0,10.69274 q 3.8564,0.35058 7.8881,0 l 0,16.82791 q -1.9282,0.17529 -3.8564,-0.17529 -1.9282,-0.35058 -3.8564,0.87646 -0.1753,7.71279 0,15.25029 0.3506,7.36222 0.3506,15.07501 -0.1753,0.17529 -0.7012,0.35058 -0.5258,0 -2.2787,0 -1.5777,0 -4.9082,0 -3.1552,-0.17529 -8.7645,-0.35058 l 0,-30.85118 q -3.6811,-0.52587 -7.8881,0 l 0,-16.82791 7.3622,0 q 0.7012,-5.08343 0,-11.04332 l -21.9113,0 0,-16.47734 61.3517,0 0,16.65263 z" />
        <path
           style="fill:#ffffff;fill-opacity:1"
           inkscape:connector-curvature="0"
           id="path7135"
           d="m 1192.2832,939.7739 -54.1649,0 0,-30.50059 q -1.4023,-0.1753 -2.8046,-0.1753 -1.4024,0 -2.8047,0.35059 l 0,-16.82792 5.0834,0 0,-28.39711 54.6908,0 0,16.47734 -38.0381,0 0,11.74448 22.9631,0 0,16.65262 -22.9631,0 0,14.02327 38.0381,0 0,16.65262 z" />
        <path
           style="fill:#ffffff;fill-opacity:1"
           inkscape:connector-curvature="0"
           id="path7137"
           d="m 1268.9702,939.94919 -22.6125,0 -22.7878,-21.91135 0,22.78781 -16.6526,0 0,-58.89771 q -4.0317,-0.17529 -7.8881,0 l 0,-16.82791 62.0529,0 0,46.97793 -19.6325,0 27.5206,27.87123 z m -24.5407,-44.69915 0,-13.49739 -20.8596,0 0,13.49739 20.8596,0 z" />
      </g>
      <rect
         y="1032.3622"
         x="0"
         height="20"
         width="1280"
         id="rect7139"
         style="opacity:1;fill:#ffffff;fill-opacity:1;stroke:none;stroke-width:2;stroke-miterlimit:4;stroke-dasharray:none;stroke-dashoffset:0;stroke-opacity:1" />
    </g>
    <text
       xml:space="preserve"
       style="font-style:normal;font-variant:normal;font-weight:normal;font-stretch:normal;font-size:64.24737549px;line-height:125%;font-family:'CF Samurai Bob';-inkscape-font-specification:'CF Samurai Bob';letter-spacing:0px;word-spacing:0px;fill:#ffffff;fill-opacity:1;stroke:none;stroke-width:1px;stroke-linecap:butt;stroke-linejoin:miter;stroke-opacity:1"
       x="181.69063"
       y="604.55243"
       id="text4836"
       sodipodi:linespacing="125%"
       transform="scale(1.0040966,0.99592012)"><tspan
         sodipodi:role="line"
         id="tspan4838"
         x="181.69063"
         y="604.55243"
         style="font-style:normal;font-variant:normal;font-weight:normal;font-stretch:normal;font-size:289.11312866px;font-family:'CF Samurai Bob';-inkscape-font-specification:'CF Samurai Bob';letter-spacing:4.7703619px;word-spacing:8.60914707px;fill:#ffffff;fill-opacity:1"
         rotate="0 0 0 0 0 0 0 0 0">RED WINS</tspan></text>
  </g>
</svg>
