<?xml version="1.0" encoding="UTF-8" standalone="no"?>
<!-- Created with Inkscape (http://www.inkscape.org/) -->

<svg
   xmlns:dc="http://purl.org/dc/elements/1.1/"
   xmlns:cc="http://creativecommons.org/ns#"
   xmlns:rdf="http://www.w3.org/1999/02/22-rdf-syntax-ns#"
   xmlns:svg="http://www.w3.org/2000/svg"
   xmlns="http://www.w3.org/2000/svg"
   xmlns:sodipodi="http://sodipodi.sourceforge.net/DTD/sodipodi-0.dtd"
   xmlns:inkscape="http://www.inkscape.org/namespaces/inkscape"
   width="60"
   height="6"
   viewBox="0 0 60 6"
   id="svg2"
   version="1.1"
   inkscape:version="0.91 r13725"
   inkscape:export-filename="\\LUCA\Hackathon\assets\star.png"
   inkscape:export-xdpi="540"
   inkscape:export-ydpi="540"
   sodipodi:docname="star.svg">
  <defs
     id="defs4" />
  <sodipodi:namedview
     id="base"
     pagecolor="#ffffff"
     bordercolor="#666666"
     borderopacity="1.0"
     inkscape:pageopacity="0.0"
     inkscape:pageshadow="2"
     inkscape:zoom="13.985001"
     inkscape:cx="42.353111"
     inkscape:cy="14.41895"
     inkscape:document-units="px"
     inkscape:current-layer="layer1"
     showgrid="true"
     units="px"
     fit-margin-top="0"
     fit-margin-left="0"
     fit-margin-right="0"
     fit-margin-bottom="0"
     inkscape:snap-bbox="true"
     inkscape:bbox-nodes="true"
     inkscape:object-paths="false"
     inkscape:object-nodes="true"
     inkscape:window-width="1920"
     inkscape:window-height="1017"
     inkscape:window-x="-8"
     inkscape:window-y="-8"
     inkscape:window-maximized="1">
    <inkscape:grid
       type="xygrid"
       id="grid4147"
       empspacing="1"
       dotted="true"
       originx="0"
       originy="15" />
  </sodipodi:namedview>
  <metadata
     id="metadata7">
    <rdf:RDF>
      <cc:Work
         rdf:about="">
        <dc:format>image/svg+xml</dc:format>
        <dc:type
           rdf:resource="http://purl.org/dc/dcmitype/StillImage" />
        <dc:title></dc:title>
      </cc:Work>
    </rdf:RDF>
  </metadata>
  <g
     inkscape:label="Layer 1"
     inkscape:groupmode="layer"
     id="layer1"
     transform="translate(12,-1073.3622)">
    <g
       id="g6064"
       transform="translate(1,-1)">
      <path
         id="rect7093"
         transform="translate(-12,1075.3622)"
         d="M 1,0 1,1 1,2 0,2 0,3 2,3 2,4 3,4 3,2 4,2 4,1 3,1 2,1 2,0 1,0 Z"
         style="opacity:1;fill:#9f9f9f;fill-opacity:1;stroke:none;stroke-width:2;stroke-miterlimit:4;stroke-dasharray:none;stroke-dashoffset:0;stroke-opacity:1"
         inkscape:connector-curvature="0" />
      <rect
         y="1076.3622"
         x="-11"
         height="1.9999826"
         width="2"
         id="rect7087"
         style="opacity:1;fill:#878787;fill-opacity:1;stroke:none;stroke-width:2;stroke-miterlimit:4;stroke-dasharray:none;stroke-dashoffset:0;stroke-opacity:1" />
    </g>
    <g
       transform="matrix(0.98768834,-0.15643447,0.15643447,0.98768834,-161.6597,10.699772)"
       id="g6068">
      <path
         inkscape:connector-curvature="0"
         style="opacity:1;fill:#9f9f9f;fill-opacity:1;stroke:none;stroke-width:2;stroke-miterlimit:4;stroke-dasharray:none;stroke-dashoffset:0;stroke-opacity:1"
         d="M 1,0 1,1 1,2 0,2 0,3 2,3 2,4 3,4 3,2 4,2 4,1 3,1 2,1 2,0 1,0 Z"
         transform="translate(-12,1075.3622)"
         id="path6070" />
      <rect
         style="opacity:1;fill:#878787;fill-opacity:1;stroke:none;stroke-width:2;stroke-miterlimit:4;stroke-dasharray:none;stroke-dashoffset:0;stroke-opacity:1"
         id="rect6072"
         width="2"
         height="1.9999826"
         x="-11"
         y="1076.3622" />
    </g>
    <g
       id="g6074"
       transform="matrix(0.95105651,-0.309017,0.309017,0.95105651,-320.41267,48.63969)">
      <path
         id="path6076"
         transform="translate(-12,1075.3622)"
         d="M 1,0 1,1 1,2 0,2 0,3 2,3 2,4 3,4 3,2 4,2 4,1 3,1 2,1 2,0 1,0 Z"
         style="opacity:1;fill:#9f9f9f;fill-opacity:1;stroke:none;stroke-width:2;stroke-miterlimit:4;stroke-dasharray:none;stroke-dashoffset:0;stroke-opacity:1"
         inkscape:connector-curvature="0" />
      <rect
         y="1076.3622"
         x="-11"
         height="1.9999826"
         width="2"
         id="rect6078"
         style="opacity:1;fill:#878787;fill-opacity:1;stroke:none;stroke-width:2;stroke-miterlimit:4;stroke-dasharray:none;stroke-dashoffset:0;stroke-opacity:1" />
    </g>
    <g
       transform="matrix(0.89100652,-0.4539905,0.4539905,0.89100652,-471.20214,111.88555)"
       id="g6080">
      <path
         inkscape:connector-curvature="0"
         style="opacity:1;fill:#9f9f9f;fill-opacity:1;stroke:none;stroke-width:2;stroke-miterlimit:4;stroke-dasharray:none;stroke-dashoffset:0;stroke-opacity:1"
         d="M 1,0 1,1 1,2 0,2 0,3 2,3 2,4 3,4 3,2 4,2 4,1 3,1 2,1 2,0 1,0 Z"
         transform="translate(-12,1075.3622)"
         id="path6082" />
      <rect
         style="opacity:1;fill:#878787;fill-opacity:1;stroke:none;stroke-width:2;stroke-miterlimit:4;stroke-dasharray:none;stroke-dashoffset:0;stroke-opacity:1"
         id="rect6084"
         width="2"
         height="1.9999826"
         x="-11"
         y="1076.3622" />
    </g>
    <g
       id="g6086"
       transform="matrix(0.80901699,-0.58778525,0.58778525,0.80901699,-610.16744,198.88002)">
      <path
         id="path6088"
         transform="translate(-12,1075.3622)"
         d="M 1,0 1,1 1,2 0,2 0,3 2,3 2,4 3,4 3,2 4,2 4,1 3,1 2,1 2,0 1,0 Z"
         style="opacity:1;fill:#9f9f9f;fill-opacity:1;stroke:none;stroke-width:2;stroke-miterlimit:4;stroke-dasharray:none;stroke-dashoffset:0;stroke-opacity:1"
         inkscape:connector-curvature="0" />
      <rect
         y="1076.3622"
         x="-11"
         height="1.9999826"
         width="2"
         id="rect6090"
         style="opacity:1;fill:#878787;fill-opacity:1;stroke:none;stroke-width:2;stroke-miterlimit:4;stroke-dasharray:none;stroke-dashoffset:0;stroke-opacity:1" />
    </g>
    <g
       transform="matrix(0.70710678,-0.70710678,0.70710678,0.70710678,-733.73905,307.48102)"
       id="g6092">
      <path
         inkscape:connector-curvature="0"
         style="opacity:1;fill:#9f9f9f;fill-opacity:1;stroke:none;stroke-width:2;stroke-miterlimit:4;stroke-dasharray:none;stroke-dashoffset:0;stroke-opacity:1"
         d="M 1,0 1,1 1,2 0,2 0,3 2,3 2,4 3,4 3,2 4,2 4,1 3,1 2,1 2,0 1,0 Z"
         transform="translate(-12,1075.3622)"
         id="path6094" />
      <rect
         style="opacity:1;fill:#878787;fill-opacity:1;stroke:none;stroke-width:2;stroke-miterlimit:4;stroke-dasharray:none;stroke-dashoffset:0;stroke-opacity:1"
         id="rect6096"
         width="2"
         height="1.9999826"
         x="-11"
         y="1076.3622" />
    </g>
    <g
       id="g6098"
       transform="matrix(0.58778525,-0.80901699,0.80901699,0.58778525,-838.72648,435.01442)">
      <path
         id="path6100"
         transform="translate(-12,1075.3622)"
         d="M 1,0 1,1 1,2 0,2 0,3 2,3 2,4 3,4 3,2 4,2 4,1 3,1 2,1 2,0 1,0 Z"
         style="opacity:1;fill:#9f9f9f;fill-opacity:1;stroke:none;stroke-width:2;stroke-miterlimit:4;stroke-dasharray:none;stroke-dashoffset:0;stroke-opacity:1"
         inkscape:connector-curvature="0" />
      <rect
         y="1076.3622"
         x="-11"
         height="1.9999826"
         width="2"
         id="rect6102"
         style="opacity:1;fill:#878787;fill-opacity:1;stroke:none;stroke-width:2;stroke-miterlimit:4;stroke-dasharray:none;stroke-dashoffset:0;stroke-opacity:1" />
    </g>
    <g
       transform="matrix(0.4539905,-0.89100652,0.89100652,0.4539905,-922.39685,578.33993)"
       id="g6104">
      <path
         inkscape:connector-curvature="0"
         style="opacity:1;fill:#9f9f9f;fill-opacity:1;stroke:none;stroke-width:2;stroke-miterlimit:4;stroke-dasharray:none;stroke-dashoffset:0;stroke-opacity:1"
         d="M 1,0 1,1 1,2 0,2 0,3 2,3 2,4 3,4 3,2 4,2 4,1 3,1 2,1 2,0 1,0 Z"
         transform="translate(-12,1075.3622)"
         id="path6106" />
      <rect
         style="opacity:1;fill:#878787;fill-opacity:1;stroke:none;stroke-width:2;stroke-miterlimit:4;stroke-dasharray:none;stroke-dashoffset:0;stroke-opacity:1"
         id="rect6108"
         width="2"
         height="1.9999826"
         x="-11"
         y="1076.3622" />
    </g>
    <g
       id="g6110"
       transform="matrix(0.309017,-0.95105651,0.95105651,0.309017,-982.54218,733.9284)">
      <path
         id="path6112"
         transform="translate(-12,1075.3622)"
         d="M 1,0 1,1 1,2 0,2 0,3 2,3 2,4 3,4 3,2 4,2 4,1 3,1 2,1 2,0 1,0 Z"
         style="opacity:1;fill:#9f9f9f;fill-opacity:1;stroke:none;stroke-width:2;stroke-miterlimit:4;stroke-dasharray:none;stroke-dashoffset:0;stroke-opacity:1"
         inkscape:connector-curvature="0" />
      <rect
         y="1076.3622"
         x="-11"
         height="1.9999826"
         width="2"
         id="rect6114"
         style="opacity:1;fill:#878787;fill-opacity:1;stroke:none;stroke-width:2;stroke-miterlimit:4;stroke-dasharray:none;stroke-dashoffset:0;stroke-opacity:1" />
    </g>
    <g
       transform="matrix(0.15643447,-0.98768834,0.98768834,0.15643447,-1017.5337,897.94873)"
       id="g6116">
      <path
         inkscape:connector-curvature="0"
         style="opacity:1;fill:#9f9f9f;fill-opacity:1;stroke:none;stroke-width:2;stroke-miterlimit:4;stroke-dasharray:none;stroke-dashoffset:0;stroke-opacity:1"
         d="M 1,0 1,1 1,2 0,2 0,3 2,3 2,4 3,4 3,2 4,2 4,1 3,1 2,1 2,0 1,0 Z"
         transform="translate(-12,1075.3622)"
         id="path6118" />
      <rect
         style="opacity:1;fill:#878787;fill-opacity:1;stroke:none;stroke-width:2;stroke-miterlimit:4;stroke-dasharray:none;stroke-dashoffset:0;stroke-opacity:1"
         id="rect6120"
         width="2"
         height="1.9999826"
         x="-11"
         y="1076.3622" />
    </g>
  </g>
</svg>
